<svg xmlns="http://www.w3.org/2000/svg" viewBox="0 0 22 22">
  <path d="M21.47 10.474h-1.8c-.076-1.264-.422-2.456-.98-3.517l2.263.29.067.003c.263 0 .49-.197.524-.468.037-.293-.168-.56-.458-.597l-3.14-.402c-.57-.76-1.262-1.42-2.045-1.954l2.05-.846c.27-.11.4-.423.29-.697-.11-.274-.415-.406-.685-.294l-2.826 1.16c-.93-.436-1.95-.708-3.023-.78L13.15.913c.206-.21.206-.55 0-.756-.207-.21-.542-.21-.748 0l-2.23 2.256c-.872.1-1.705.332-2.478.677l.604-1.882c.09-.28-.062-.583-.34-.674-.278-.09-.576.063-.666.344L6.34 3.85c-.695.477-1.317 1.055-1.845 1.713L3.87 3.437c-.084-.283-.38-.445-.66-.36-.28.084-.438.382-.355.665l.87 2.952c-.387.677-.686 1.41-.88 2.187L.857 7.29c-.228-.184-.56-.145-.743.087-.18.23-.143.567.086.75l2.432 1.952c-.014.13-.024.262-.033.395H.8c-.293 0-.53.24-.53.535 0 .296.237.535.53.535h20.128c-.275 5.223-4.562 9.386-9.793 9.386-4.22 0-7.958-2.715-9.3-6.76-.093-.28-.393-.43-.67-.336-.276.094-.425.397-.332.677C2.32 18.99 6.46 22 11.135 22 17.125 22 22 17.07 22 11.01c0-.296-.237-.536-.53-.536zm-12.04 0c.078-.883.812-1.578 1.705-1.578.457 0 .887.18 1.21.507.207.21.54.21.748 0 .206-.21.206-.548 0-.756-.523-.53-1.218-.82-1.958-.82C9.66 7.827 8.45 9 8.37 10.473H3.66c.082-1.203.444-2.33 1.02-3.313.057-.058.1-.128.124-.205.56-.89 1.295-1.653 2.158-2.24.073-.028.14-.07.194-.128 1.154-.734 2.518-1.16 3.98-1.16 1.163 0 2.265.27 3.25.75.048.037.102.065.16.082 2.275 1.18 3.877 3.5 4.065 6.21H9.43z"/>
</svg>