<svg xmlns="http://www.w3.org/2000/svg" viewBox="0 0 10 22">
  <path d="M.495 7.765c.06 0 .122-.013.182-.04l7.09-3.26c.002-.002.003-.003.005-.003l1.667-.767c.23-.108.34-.4.24-.65-.1-.252-.37-.368-.61-.26l-1.025.47V.495C8.05.222 7.845 0 7.59 0H2.02c-.255 0-.46.222-.46.495V6.24l-1.246.574c-.235.107-.343.398-.243.65.08.188.25.3.43.3zM2.48.99h4.65v2.69L2.48 5.817V.99zm6.596 6.84L8.05 8.3V6.084c0-.274-.205-.495-.46-.495s-.46.22-.46.49v2.64l-4.65 2.14V8.286c0-.274-.205-.496-.46-.496s-.46.22-.46.492v3l-1.246.574c-.234.106-.343.397-.243.65.08.187.25.3.43.3.06 0 .12-.013.18-.04l1.52-.7s.006 0 .007-.002l5.565-2.56h.004L9.44 8.74c.233-.107.34-.4.24-.65-.1-.252-.37-.368-.604-.26zm0 5.044l-1.025.472v-2.36c0-.274-.2-.496-.46-.496s-.46.222-.46.496v2.784l-4.65 2.137V13.33c0-.274-.2-.496-.46-.496s-.46.222-.46.496v3l-1.24.574c-.234.107-.343.4-.243.65.076.188.246.3.425.3.06 0 .12-.012.18-.04l1.274-.585 2.454 4.49c.08.152.233.245.397.245s.315-.093.398-.245l2.785-5.1c.04-.075.06-.162.06-.25v-1.95l1.39-.637c.233-.107.34-.4.24-.65-.1-.252-.37-.368-.604-.26zm-1.947 3.37L4.8 20.497l-2-3.66 4.324-1.99v1.396z"/>
</svg>