<svg xmlns="http://www.w3.org/2000/svg" viewBox="0 0 40 40">
  <path d="M38.21 3.95l-2.16-2.163C34.897.634 33.36 0 31.724 0c-1.636 0-3.172.634-4.323 1.786l-8.29 8.29c-1.15 1.152-1.78 2.688-1.78 4.323 0 1.46.51 2.84 1.45 3.95l-.42.41c-1.1-.94-2.48-1.44-3.95-1.44-1.64 0-3.17.63-4.32 1.78L1.8 27.39C.637 28.55 0 30.09 0 31.72s.634 3.18 1.786 4.33l2.163 2.164C5.1 39.364 6.63 40 8.27 40c1.636 0 3.172-.636 4.324-1.787l8.29-8.29c2.262-2.26 2.377-5.872.344-8.272l.42-.41c1.1.93 2.485 1.44 3.95 1.44 1.636 0 3.172-.63 4.323-1.78l8.29-8.29C39.37 11.45 40 9.91 40 8.28c0-1.64-.635-3.17-1.79-4.328zM21.656 25.6c0 1.363-.53 2.642-1.49 3.603l-8.29 8.29c-.958.958-2.238 1.486-3.602 1.486-1.365 0-2.644-.53-3.604-1.49l-2.164-2.16c-.96-.96-1.488-2.24-1.488-3.61 0-1.37.528-2.65 1.487-3.61l8.29-8.29c.958-.96 2.238-1.49 3.602-1.49 1.19 0 2.32.4 3.225 1.14l-1.454 1.45c-.512-.36-1.125-.56-1.77-.56-.82 0-1.588.32-2.163.89l-8.29 8.29c-.573.575-.89 1.34-.89 2.16 0 .82.317 1.59.89 2.165l2.164 2.16c.57.574 1.34.89 2.16.89.82 0 1.58-.316 2.16-.89l8.29-8.288c1.07-1.07 1.18-2.74.33-3.938l1.45-1.45c.74.91 1.15 2.036 1.15 3.23zM11.53 28.468c.384.384.897.595 1.442.595.546 0 1.058-.212 1.442-.595l3.903-3.904c.46.782.355 1.807-.314 2.477l-8.29 8.29c-.38.38-.893.59-1.44.59-.548 0-1.06-.2-1.442-.59l-2.16-2.16c-.38-.38-.59-.89-.59-1.44s.21-1.06.59-1.44L12.96 22c.38-.383.893-.593 1.44-.593.37 0 .727.097 1.036.278l-3.903 3.903c-.382.384-.594.896-.594 1.442 0 .544.21 1.056.59 1.44zm2.163-.72c-.397.396-1.045.397-1.442 0-.39-.398-.39-1.044 0-1.442l6.48-6.472 7.58-7.582c.4-.396 1.05-.397 1.44 0 .4.398.4 1.044 0 1.442L13.7 27.748zM28.467 11.53c-.383-.383-.896-.594-1.44-.594-.547 0-1.06.21-1.443.595l-3.904 3.91c-.18-.31-.28-.66-.28-1.03 0-.54.21-1.05.598-1.44l8.29-8.29c.38-.38.893-.59 1.44-.59.548 0 1.06.21 1.442.59l2.16 2.17c.795.8.795 2.09 0 2.88l-8.29 8.29c-.38.38-.892.59-1.44.59-.37 0-.726-.09-1.034-.27l3.902-3.9c.384-.384.596-.896.596-1.442 0-.544-.212-1.056-.596-1.44zm9.024.346l-8.28 8.29c-.96.958-2.24 1.487-3.6 1.487-1.19 0-2.32-.403-3.22-1.145l1.46-1.454c.51.364 1.13.56 1.77.56.82 0 1.59-.316 2.168-.89l8.29-8.29c1.19-1.19 1.19-3.13 0-4.323L33.9 3.95c-.577-.57-1.345-.89-2.165-.89-.82 0-1.587.32-2.162.89l-8.287 8.29c-.578.58-.895 1.35-.895 2.16 0 .65.2 1.26.57 1.78l-1.46 1.452c-1.63-2-1.52-4.964.35-6.83l8.29-8.29c.96-.96 2.24-1.486 3.6-1.486 1.37 0 2.65.528 3.61 1.488l2.16 2.164c.96.96 1.49 2.24 1.49 3.6s-.53 2.644-1.49 3.604z"/>
</svg>