<svg xmlns="http://www.w3.org/2000/svg" viewBox="0 0 22 21">
  <path d="M2.11.528h.812V.364c0-.106.053-.205.138-.258.085-.053.19-.053.276 0 .085.053.138.152.138.258v.164h.66V.364c-.002-.077.023-.153.073-.21.05-.056.118-.088.19-.088.153 0 .276.134.276.298v.164h.662V.364c-.026-.12.02-.243.113-.312.094-.07.217-.07.31 0 .094.07.14.193.114.312v.164h.662V.364c0-.08.03-.155.08-.21.052-.056.122-.088.196-.088.07 0 .14.032.19.088.05.057.075.133.07.21v.164h.663V.364c0-.164.124-.298.276-.298.15 0 .27.134.27.298v.164h.66V.364c-.01-.077.02-.154.07-.21.05-.056.11-.088.19-.088.07 0 .14.032.19.088.05.055.08.13.08.21v.164h.81c.56-.004 1.1.235 1.494.664.397.428.62 1.01.614 1.617v15.32c.003.64-.248 1.25-.69 1.68h5.073v-3.35c-.34-.13-.57-.48-.566-.87v-2.74h-.355c-.15 0-.274-.14-.274-.3 0-.17.125-.3.277-.3h.36v-1.03c.006-.156.12-.278.26-.286h.304V9.18c-.026-.117.02-.24.113-.31s.217-.07.31 0c.094.07.14.193.114.31v1.76h.303c.146 0 .263.128.263.284v1.03h.37c.15 0 .273.132.273.297 0 .17-.124.3-.277.3H17.9v2.75c.002.39-.225.738-.565.865v3.35h1.53c.76 0 1.38-.667 1.38-1.49v-1.86c-.34-.13-.568-.476-.566-.865v-2.75h-.375c-.15 0-.275-.133-.275-.298 0-.165.125-.298.277-.298h.373v-1.03c0-.156.116-.283.26-.283h.304V9.18c-.03-.117.02-.24.11-.31s.216-.07.31 0c.093.07.14.193.113.31v1.76h.306c.142.01.255.13.262.284v1.03h.36c.153 0 .276.132.276.297 0 .17-.123.3-.276.3h-.358v2.75c.002.39-.225.74-.565.87v1.82c0 1.173-.884 2.13-1.97 2.13H9.48v.22c0 .165-.124.3-.276.3-.072 0-.14-.03-.19-.09-.05-.056-.076-.132-.072-.21v-.223H8.27v.22c0 .165-.123.3-.275.3-.152 0-.276-.134-.276-.298v-.226h-.65v.22c0 .077-.02.15-.07.21-.05.056-.12.088-.19.088-.16 0-.28-.132-.28-.296v-.224h-.66v.22c.02.12-.02.244-.12.313-.1.07-.22.07-.31 0s-.14-.196-.12-.315v-.23h-.66v.223c0 .165-.123.3-.276.3-.07 0-.14-.03-.19-.088-.05-.058-.075-.134-.07-.21V20.4h-.66v.223c0 .165-.127.3-.28.3-.15 0-.275-.134-.275-.298V20.4H2.1c-1.16.004-2.1-1.01-2.105-2.27V2.81C0 1.55.943.527 2.11.527zm.426 2.296c-.147.008-.262.14-.262.298v3.22c0 .158.115.29.262.298H9.87c.072 0 .14-.032.19-.09.05-.055.075-.13.072-.21V3.123c.003-.078-.023-.154-.072-.21-.05-.056-.118-.088-.19-.088H2.536zm6.01 9.584c-.022-1.385-1.075-2.49-2.356-2.474-1.28.016-2.31 1.148-2.302 2.533.007 1.386 1.048 2.504 2.33 2.505.623-.004 1.22-.277 1.657-.758.437-.482.68-1.132.67-1.806z"/>
</svg>