<svg xmlns="http://www.w3.org/2000/svg" viewBox="0 0 16 22">
  <path d="M13.29 2.318h1.51c.372 0 .673.3.673.672v5.06c0 .3-.198.563-.486.646L7.735 10.79v1.855h1.34c.37 0 .67.3.67.672v6.02c0 1.468-1.192 2.663-2.7 2.663-1.47 0-2.664-1.195-2.664-2.663v-6.02c0-.37.3-.672.674-.672h1.34v-2.36c0-.3.197-.563.485-.647l7.25-2.093V3.662h-.837v1.646c0 .37-.3.672-.67.672H.67c-.37 0-.672-.3-.672-.672V.672C0 .302.3 0 .672 0H12.62c.37 0 .67.3.67.672v1.646zm-1.343 2.318V1.344H1.344v3.292h10.603zm-3.545 14.7V13.99H5.724v5.347c0 .727.592 1.32 1.32 1.32h.04c.726 0 1.318-.593 1.318-1.32z"/>
</svg>