<svg xmlns="http://www.w3.org/2000/svg" viewBox="0 0 25 24">
  <path d="M24.13 5.625L18.994.487c-.238-.238-.615-.247-.842-.02L9.894 8.725c-.14.14-.195.34-.15.54l.64 2.764-1.444 1.44c-.228.22-.22.6.018.84s.615.24.842.02l1.666-1.67c.138-.14.194-.346.15-.54l-.127-.548 4.5.106c.33.007.59-.253.58-.58l-.04-1.837 1.83.043c.327.007.59-.254.58-.58l-.043-1.84 1.836.044c.33.01.59-.25.584-.58-.006-.33-.28-.6-.61-.61l-1.83-.04-.043-1.837c-.01-.326-.28-.6-.61-.606-.33-.008-.59.252-.58.58l.04 1.84-1.84-.044c-.33-.008-.59.252-.58.58l.044 1.837-1.836-.04c-.328-.005-.59.255-.58.584.003.165.073.315.183.426.11.11.26.18.424.18l1.84.042.03 1.24-4.16-.1-.235-1.025L18.6 1.74l4.278 4.276-7.625 7.625-2.765-.63c-.198-.042-.4.01-.54.15l-2.526 2.52-1.852-1.85c-.24-.235-.615-.244-.84-.02l-1.38 1.38-3.87 3.866c-1.066 1.068-1.025 2.844.093 3.96l.032.034c1.117 1.116 2.894 1.16 3.96.092l3.865-3.87 1.38-1.377c.228-.227.22-.604-.02-.842l-.508-.507 2.306-2.306 2.766.638c.197.046.4-.01.538-.15l8.26-8.257c.226-.225.217-.602-.02-.84zM16.476 6.84l1.242.03.03 1.242-1.243-.03-.03-1.24zM8.57 18.41l-3.865 3.864c-.613.613-1.634.59-2.276-.053l-.04-.03c-.647-.64-.67-1.66-.058-2.27l3.454-3.45 1.4 1.395c.24.238.616.247.843.02.227-.227.22-.604-.02-.842l-1.394-1.4.555-.555 2.363 2.36-.968.97z"/>
</svg>