<svg xmlns="http://www.w3.org/2000/svg" viewBox="0 0 22 22">
  <g fill-rule="evenodd">
    <path d="M21.435 18.104c.276 0 .5-.224.5-.5V.534c0-.21-.133-.4-.33-.47-.198-.072-.42-.01-.553.15L3.71 21.148c-.124.15-.15.356-.068.53.082.177.258.29.45.29h17.343c.276 0 .5-.225.5-.5 0-.277-.224-.5-.5-.5H5.155l15.782-19.05v15.687c0 .276.223.5.498.5z"/>
    <path d="M17.606 9.616l-6.353 7.67c-.124.148-.15.355-.068.53.082.176.258.288.45.288h6.354c.27 0 .49-.224.49-.5V9.936c0-.21-.13-.4-.33-.47-.2-.072-.42-.012-.55.15zm-.115 7.488H12.7l4.79-5.784v5.784zm-13.31-.802L5.37 14.8l6.415-8.082.003-.003.01-.012.03-.048.008-.013.03-.065v-.003l1.9-5.365c.07-.21.008-.43-.16-.56C13.44.51 13.21.5 13.03.62L8.24 3.68l-.01.002-.02.016c-.01.003-.014.01-.02.014l-.02.015-.02.017c-.002.005-.01.01-.01.015l-.02.02h-.005l-4.91 6.184c-.172.216-.137.53.08.703.214.17.528.135.7-.08l4.6-5.797 2.107 1.683-5.793 7.3-2.5-1.99c-.22-.17-.53-.136-.71.08L.502 13.37c-.384.488-.56 1.098-.49 1.717.07.62.377 1.172.86 1.56l.03.023c.41.328.926.508 1.45.508.715 0 1.38-.32 1.82-.88zM9.36 4.146l.727-.464.5.4c.09.072.2.108.31.108.146 0 .29-.065.39-.19.17-.215.136-.53-.08-.702l-.23-.184 1.358-.87-1.18 3.335L9.36 4.14zM2.353 16.182c-.303 0-.588-.1-.826-.29l-.03-.023c-.276-.23-.45-.54-.49-.9-.04-.36.058-.7.28-.98l.88-1.11 2.108 1.68-.88 1.11c-.255.32-.634.5-1.042.5z"/>
    <path d="M5.182 11.756c.147 0 .292-.064.39-.188l3.26-4.107c.172-.21.136-.53-.08-.7-.215-.17-.528-.13-.7.08l-3.26 4.11c-.17.22-.135.53.08.71.092.075.202.11.31.11z"/>
  </g>
</svg>