<svg xmlns="http://www.w3.org/2000/svg" viewBox="0 0 19 24">
  <path d="M17.776.105c-.49-.212-1.053-.098-1.43.29l-8.838 9.11-.015.016-.017.02-6.596 6.8c-1.137 1.178-1.137 3.08 0 4.26l2.46 2.538c.562.58 1.3.868 2.04.868.71 0 1.423-.265 1.982-.797.047-.026.09-.058.128-.097.55-.57.855-1.324.855-2.127v-4.14l2.216-2.29c.01-.003.01-.007.01-.01l.03-.024c.006-.006.01-.012.014-.02l.016-.022.013-.02.01-.023.01-.02.01-.022.01-.022.007-.023.005-.024.006-.027v-.026l.007-.023c0-.01 0-.02.002-.03v-.01l.03-1.485 1.44-.03c.27-.004.484-.227.49-.503l.03-1.49 1.44-.03c.27-.005.485-.23.49-.504l.03-1.487 1.442-.03c.27-.007.485-.23.49-.506l.03-1.49 1.445-.03c.27-.007.487-.234.49-.513l.027-4.74C18.587.81 18.27.32 17.78.11zm-.22 5.488l-1.437.03c-.27.007-.49.23-.49.506l-.03 1.48-1.45.03c-.268.003-.484.226-.49.502l-.027 1.49-1.444.03c-.267.005-.483.227-.49.504l-.027 1.488-1.445.03c-.27.006-.486.23-.49.505l-.036 1.775-1.35 1.395v-2.22c0-.282-.225-.513-.5-.513-.276 0-.5.23-.5.515v3.36c-.01.04-.016.086-.016.13v4.353c0 .49-.17.954-.49 1.32-.04.02-.08.05-.11.085-.75.77-1.96.78-2.7.016L1.58 19.87c-.746-.77-.746-2.028 0-2.8l6.6-6.803.014-.017.016-.016 8.84-9.105c.133-.14.28-.098.34-.07.057.022.19.1.19.294l-.026 4.24z"/>
</svg>