<svg xmlns="http://www.w3.org/2000/svg" viewBox="0 0 22 22">
  <g fill-rule="evenodd">
    <path d="M16.733 11.34c-.633 0-1.24.114-1.8.324l-.705-.715 4.928-5c1.56-1.58 1.56-4.15 0-5.73l-.024-.03c-.222-.23-.58-.23-.802 0l-5.817 5.9c-.222.22-.222.58 0 .81.22.22.58.22.802 0l5.38-5.46c.76 1.13.647 2.683-.34 3.684l-4.93 4.996L3.623.197c-.22-.224-.58-.224-.802 0L2.8.22c-1.558 1.58-1.558 4.152 0 5.732l4.93 4.997-.706.71c-.56-.21-1.167-.33-1.8-.33-2.88 0-5.22 2.37-5.22 5.29s2.34 5.29 5.22 5.29c2.878 0 5.22-2.375 5.22-5.294 0-.555-.085-1.09-.243-1.594l.78-.79.78.79c-.15.503-.24 1.04-.24 1.594 0 2.92 2.34 5.296 5.22 5.296s5.22-2.375 5.22-5.294c0-2.918-2.34-5.29-5.22-5.29zM5.22 20.773c-2.253 0-4.086-1.858-4.086-4.143 0-2.283 1.833-4.14 4.085-4.14s4.08 1.857 4.08 4.14c0 2.286-1.84 4.144-4.09 4.144zm4.478-6.858c-.405-.683-.958-1.267-1.614-1.705l.443-.448 1.647 1.67-.476.484zm-.77-3.373L3.598 5.14c-.99-1.002-1.1-2.56-.343-3.688l9.768 9.904.844.855c-.656.44-1.21 1.03-1.613 1.71l-3.327-3.37zm7.805 10.23c-2.253 0-4.086-1.857-4.086-4.142 0-2.283 1.833-4.14 4.086-4.14s4.085 1.857 4.085 4.14c0 2.286-1.832 4.144-4.085 4.144z"/>
    <path d="M5.22 14.38c-1.226 0-2.222 1.01-2.222 2.25 0 1.243.996 2.254 2.22 2.254 1.226 0 2.223-1.01 2.223-2.253 0-1.24-.99-2.25-2.22-2.25zm0 3.354c-.6 0-1.088-.495-1.088-1.103 0-.6.488-1.1 1.087-1.1.6 0 1.08.5 1.08 1.1 0 .61-.49 1.11-1.09 1.11zm11.513-3.354c-1.225 0-2.222 1.01-2.222 2.25 0 .32.26.576.57.576.32 0 .57-.257.57-.575 0-.6.49-1.1 1.09-1.1s1.09.5 1.09 1.1c0 .61-.482 1.11-1.082 1.11-.313 0-.567.26-.567.58 0 .32.254.578.567.578 1.223 0 2.22-1.01 2.22-2.253 0-1.24-.997-2.25-2.22-2.25z"/>
  </g>
</svg>