<svg xmlns="http://www.w3.org/2000/svg" viewBox="0 0 9 26">
  <g fill-rule="evenodd">
    <path d="M8.93 12.553v-.03c0-.297-.245-.538-.546-.538H4.218V6.14h.872v4.52c0 .297.244.538.544.538.3 0 .545-.24.545-.54V5.7c.02-.03.033-.063.05-.097l.572-1.37c.047-.112.054-.237.02-.354L5.968.89C5.898.66 5.686.5 5.442.5H3.865c-.243 0-.457.16-.524.39l-.86 2.983c-.03.117-.022.242.02.354L3.08 5.6c.014.035.033.067.054.097v6.288H.58c-.3 0-.545.24-.545.54v.028c0 1.06.498 2.036 1.33 2.665-.287.512-.436 1.083-.436 1.68v5.08c0 .808.28 1.596.8 2.22.19.228.534.26.766.07.232-.19.265-.528.073-.758-.36-.43-.556-.974-.556-1.533v-5.08c0-.55.184-1.07.532-1.5.1-.127.14-.29.107-.45-.034-.157-.138-.292-.283-.366-.613-.31-1.042-.87-1.19-1.512h6.6c-.15.646-.58 1.204-1.193 1.518-.147.075-.25.21-.285.368-.033.16.007.323.108.45.35.43.533.95.533 1.5v5.08c0 1.328-1.09 2.41-2.433 2.41h-.06c-.3 0-.544.24-.544.54 0 .296.243.537.544.537h.06c1.944 0 3.524-1.564 3.524-3.487V16.9c0-.597-.15-1.168-.435-1.68.83-.63 1.33-1.606 1.33-2.665zM4.274 1.578h.757l.7 2.412-.36.867H3.94l-.36-.866.695-2.41z"/>
    <path d="M3.33 16.35c-.3 0-.545.24-.545.538v5.335c0 .298.244.54.544.54.3 0 .54-.242.54-.54v-5.335c0-.298-.245-.54-.546-.54zm2.848 5.873v-5.335c0-.298-.243-.54-.544-.54-.3 0-.544.242-.544.54v5.335c0 .298.243.54.544.54.3 0 .544-.242.544-.54z"/>
  </g>
</svg>