<svg xmlns="http://www.w3.org/2000/svg" viewBox="0 0 48 36">
  <g fill-rule="evenodd">
    <path d="M47.226 23.062h-6.968V12.54c0-.433-.346-.783-.774-.783h-6.968V1.234c0-.432-.346-.782-.774-.782H16.258c-.428 0-.774.35-.774.782v10.522H8.516c-.428 0-.774.35-.774.782V23.06H.774c-.428 0-.774.35-.774.783v11.304c0 .432.346.783.774.783h46.452c.428 0 .774-.35.774-.783V23.845c0-.434-.346-.783-.774-.783zm-8.516 0H24.774v-9.74H38.71v9.74zM17.032 2.017h13.936v9.74H17.032v-9.74zM9.29 13.322h13.936v9.74H9.29v-9.74zM1.548 24.627h13.936v9.738H1.548v-9.738zm15.484 0h13.936v9.738H17.032v-9.738zm29.42 9.738H32.516v-9.738h13.936v9.738z"/>
    <path d="M28.84 9.843c.427 0 .773-.35.773-.783V3.387c0-.432-.346-.783-.774-.783-.43 0-.78.35-.78.783V9.06c0 .434.346.783.774.783zm7.74 11.152c.43 0 .775-.35.775-.782V14.54c0-.433-.346-.784-.774-.784-.422 0-.77.35-.77.783v5.67c0 .43.348.78.776.78zm7.936 10.565c.428 0 .774-.35.774-.782V25.57c0-.432-.346-.782-.774-.782-.428 0-.774.35-.774.782v5.208c0 .433.346.782.774.782z"/>
  </g>
</svg>