<svg xmlns="http://www.w3.org/2000/svg" viewBox="0 0 48 26">
  <g fill-rule="evenodd">
    <path d="M10.72 7.565c-4.112 0-7.457 3.232-7.457 7.204 0 3.97 3.345 7.202 7.457 7.202 1.157 0 2.268-.25 3.3-.745l-.633-1.236c-.834.4-1.73.603-2.667.603-3.326 0-6.03-2.614-6.03-5.827 0-3.214 2.704-5.827 6.03-5.827 3.325 0 6.03 2.612 6.03 5.825 0 1.507-.596 2.94-1.68 4.03l1.03.954c1.34-1.35 2.076-3.12 2.076-4.986 0-3.973-3.345-7.205-7.456-7.205z"/>
    <path d="M6.526 14.77c0 2.233 1.88 4.05 4.194 4.05 2.312 0 4.193-1.817 4.193-4.05 0-2.235-1.88-4.053-4.193-4.053-2.313 0-4.194 1.818-4.194 4.052zm6.96 0c0 1.473-1.24 2.673-2.766 2.673-1.527 0-2.768-1.2-2.768-2.674 0-1.477 1.242-2.677 2.768-2.677 1.526 0 2.767 1.2 2.767 2.674zm20.234-3.344h10.062v1.378h-10.06zm1.324 5.86c-1.582 0-2.87 1.245-2.87 2.774H33.6c0-.77.648-1.395 1.444-1.395.796 0 1.444.626 1.444 1.395h1.426c0-1.53-1.288-2.773-2.87-2.773z"/>
    <path d="M35.044 14.554c-1.555 0-3.033.612-4.106 1.69h-8.176v1.378h8.82l.214-.242c.814-.92 1.998-1.448 3.248-1.448 1.25 0 2.434.528 3.248 1.448l.213.242h5.277v-1.378H39.15c-1.073-1.078-2.55-1.69-4.106-1.69z"/>
    <path d="M37.28 4.412h-9.59L24.757.256h-4.254l.01 4.156H10.72C4.81 4.412 0 9.058 0 14.77c0 5.71 4.81 10.356 10.72 10.356h26.56C43.19 25.126 48 20.48 48 14.77c0-5.713-4.81-10.36-10.72-10.36zM1.426 14.77c0-4.952 4.17-8.98 9.294-8.98 5.124 0 9.293 4.028 9.293 8.98 0 4.95-4.17 8.978-9.293 8.978-5.125 0-9.294-4.028-9.294-8.98zm35.854 8.978H16.057c.924-.514 1.76-1.158 2.485-1.905h10.755v-1.378h-9.63c1.12-1.635 1.772-3.593 1.772-5.696 0-.675-.07-1.33-.197-1.968h10.3v-1.377h-10.68c-.245-.696-.566-1.358-.952-1.978h19.03V8.07H18.89c-.8-.907-1.757-1.68-2.832-2.28h5.884l-.01-4.156h2.072l2.932 4.156H37.28c5.125 0 9.294 4.028 9.294 8.98 0 4.95-4.17 8.978-9.294 8.978z"/>
  </g>
</svg>