<svg xmlns="http://www.w3.org/2000/svg" viewBox="0 0 15 22">
  <path fill-rule="evenodd" d="M5.892 21.217c.32-.308.494-.734.486-1.175v-1.628c.01-.62-.322-1.2-.866-1.507l-.728-.422-.137-11.21.73-.408c.535-.31.852-.892.818-1.507V1.838C6.21 1.215 5.875.636 5.33.33L4.844.045c-.103-.06-.23-.06-.333 0-.1.06-.16.168-.16.287v1.93c.01.22-.08.433-.24.587-.15.14-.36.23-.57.22h-.87c-.22-.01-.43-.1-.59-.26-.15-.15-.233-.35-.24-.56V.36c0-.118-.06-.23-.17-.285-.103-.054-.23-.054-.333 0l-.5.285c-.54.31-.86.89-.834 1.508V3.48c-.005.62.325 1.197.867 1.507l.73.437.12 11.212-.73.407c-.54.305-.86.89-.82 1.507v1.612c-.01.62.32 1.195.86 1.507l.48.28c.1.06.23.06.33 0s.163-.17.164-.29v-2.12c-.008-.22.08-.44.244-.59.154-.15.36-.24.577-.24h.87c.22 0 .433.08.592.24.15.16.236.37.242.58v1.92c.002.12.065.225.17.287.1.06.23.06.33 0l.485-.27c.132-.066.255-.15.363-.255zm7.818.317c.23-.228.355-.538.35-.86l-.092-7.745h.365c.184 0 .334-.15.334-.34-.008-.19-.16-.34-.35-.35H13.18v-1.23c0-.09-.032-.18-.092-.24-.066-.07-.152-.1-.243-.11h-.364l-.1-9.04c.02-.06.02-.118 0-.17L12 .49c-.087-.183-.267-.31-.47-.32-.205 0-.387.13-.457.32l-.365.95c-.015.055-.015.11 0 .167l.107 9.04h-.47c-.182 0-.332.15-.332.33v1.22h-1.13c-.09-.01-.18.02-.246.08-.065.06-.097.15-.087.24 0 .09.03.172.092.235.063.06.148.096.237.096h.35l.09 7.743c.01.686.58 1.234 1.27 1.234h2.26c.31 0 .61-.11.85-.32z"/>
</svg>