<svg xmlns="http://www.w3.org/2000/svg" style="position:absolute; width: 0; height: 0;"><symbol viewBox="0 0 22 22" id="svg-circular-saw-icon"><path d="M21.47 10.474h-1.8a8.66 8.66 0 0 0-.98-3.517l2.263.29.067.003a.53.53 0 0 0 .524-.468.532.532 0 0 0-.458-.597l-3.14-.402a8.645 8.645 0 0 0-2.045-1.954l2.05-.846c.27-.11.4-.423.29-.697a.522.522 0 0 0-.685-.294l-2.826 1.16a8.441 8.441 0 0 0-3.023-.78L13.15.913a.54.54 0 0 0 0-.756.523.523 0 0 0-.748 0l-2.23 2.256a8.43 8.43 0 0 0-2.478.677l.604-1.882a.528.528 0 1 0-1.006-.33L6.34 3.85a8.625 8.625 0 0 0-1.845 1.713L3.87 3.437a.53.53 0 1 0-1.015.305l.87 2.952a8.601 8.601 0 0 0-.88 2.187L.857 7.29a.524.524 0 0 0-.743.087.539.539 0 0 0 .086.75l2.432 1.952c-.014.13-.024.262-.033.395H.8c-.293 0-.53.24-.53.535 0 .296.237.535.53.535h20.128c-.275 5.223-4.562 9.386-9.793 9.386-4.22 0-7.958-2.715-9.3-6.76a.527.527 0 0 0-.67-.336.536.536 0 0 0-.332.677C2.32 18.99 6.46 22 11.135 22 17.125 22 22 17.07 22 11.01a.533.533 0 0 0-.53-.536zm-12.04 0a1.722 1.722 0 0 1 1.705-1.578c.457 0 .887.18 1.21.507.207.21.54.21.748 0a.54.54 0 0 0 0-.756 2.73 2.73 0 0 0-1.958-.82C9.66 7.827 8.45 9 8.37 10.473H3.66A7.56 7.56 0 0 1 4.68 7.16a.51.51 0 0 0 .124-.205 7.607 7.607 0 0 1 2.158-2.24.514.514 0 0 0 .194-.128 7.39 7.39 0 0 1 3.98-1.16c1.163 0 2.265.27 3.25.75a.486.486 0 0 0 .16.082 7.59 7.59 0 0 1 4.065 6.21H9.43z"></path></symbol><symbol viewBox="0 0 10 22" id="svg-drill-icon"><path d="M.495 7.765c.06 0 .122-.013.182-.04l7.09-3.26c.002-.002.003-.003.005-.003l1.667-.767c.23-.108.34-.4.24-.65a.452.452 0 0 0-.61-.26l-1.025.47V.495C8.05.222 7.845 0 7.59 0H2.02c-.255 0-.46.222-.46.495V6.24l-1.246.574a.509.509 0 0 0-.243.65c.08.188.25.3.43.3zM2.48.99h4.65v2.69L2.48 5.817V.99zm6.596 6.84L8.05 8.3V6.084c0-.274-.205-.495-.46-.495s-.46.22-.46.49v2.64l-4.65 2.14V8.286c0-.274-.205-.496-.46-.496s-.46.22-.46.492v3l-1.246.574c-.234.106-.343.397-.243.65.08.187.25.3.43.3.06 0 .12-.013.18-.04l1.52-.7s.006 0 .007-.002l5.565-2.56h.004L9.44 8.74c.233-.107.34-.4.24-.65-.1-.252-.37-.368-.604-.26zm0 5.044l-1.025.472v-2.36c0-.274-.2-.496-.46-.496s-.46.222-.46.496v2.784l-4.65 2.137V13.33c0-.274-.2-.496-.46-.496s-.46.222-.46.496v3l-1.24.574a.51.51 0 0 0-.243.65c.076.188.246.3.425.3a.42.42 0 0 0 .18-.04l1.274-.585 2.454 4.49c.08.152.233.245.397.245s.315-.093.398-.245l2.785-5.1a.533.533 0 0 0 .06-.25v-1.95l1.39-.637c.233-.107.34-.4.24-.65-.1-.252-.37-.368-.604-.26zm-1.947 3.37L4.8 20.497l-2-3.66 4.324-1.99v1.396z"></path></symbol><symbol viewBox="0 0 21 21" id="svg-drill-sencondary-icon"><path d="M15.465 9.615l-1.5 1.5-6.225-1.95 1.5-1.5 6.225 1.95zm-2.16-6l1.5-1.5 5.835 1.83v.525L19.5 5.61l-6.195-1.995zM12.06 4.86l6.21 1.95-1.5 1.5-6.27-1.89 1.56-1.56zM9.945 15.135L4.095 21a11.038 11.038 0 0 0-1.785-2.265A11.033 11.033 0 0 0 0 16.92l6.45-6.42 6.21 1.965-1.5 1.5-3.51-1.095a.768.768 0 0 0-.976.51c-.127.414.1.854.51.99l2.76.765zM21 0l-.165 2.28-4.71-1.5.465-.465L21 0z"></path></symbol><symbol viewBox="0 0 23 21" id="svg-hand-drill-icon"><path d="M.926 5.363a3.078 3.078 0 0 1 0-4.403A3.35 3.35 0 0 1 3.23 0h10.084c.39.002.75.2.95.526l2.918.18c.132.015.23.125.23.255v.307h2.395c.956 0 1.764.694 1.888 1.622h1.044a.23.23 0 0 1 .183.07.23.23 0 0 1 .07.184.229.229 0 0 1-.076.176.243.243 0 0 1-.183.064H21.69c-.124.93-.932 1.623-1.888 1.623H17.41v.316c0 .126-.1.23-.23.24l-2.917.18a1.126 1.126 0 0 1-.95.525h-.4V7.77a.272.272 0 0 1-.26.254h-1.536v.363c0 .133-.11.24-.247.24h-.813c-.542.007-.99.418-1.03.947l-.367 4.1 3.208.946c.738.212 1.22.903 1.152 1.652l-.384 4.507a.242.242 0 0 1-.245.222H3.38a.257.257 0 0 1-.26-.255v-4.81c.002-.7.29-1.37.8-1.863l.352-.36v-6.37c0-.286-.117-.56-.324-.764-.208-.2-.49-.314-.783-.314a3.246 3.246 0 0 1-2.24-.9z"></path></symbol><symbol viewBox="0 0 40 40" id="svg-metal-icon"><path d="M38.21 3.95l-2.16-2.163A6.076 6.076 0 0 0 31.724 0a6.069 6.069 0 0 0-4.323 1.786l-8.29 8.29a6.075 6.075 0 0 0-1.78 4.323c0 1.46.51 2.84 1.45 3.95l-.42.41a6.024 6.024 0 0 0-3.95-1.44c-1.64 0-3.17.63-4.32 1.78L1.8 27.39C.637 28.55 0 30.09 0 31.72s.634 3.18 1.786 4.33l2.163 2.164A6.066 6.066 0 0 0 8.27 40a6.078 6.078 0 0 0 4.324-1.787l8.29-8.29c2.262-2.26 2.377-5.872.344-8.272l.42-.41c1.1.93 2.485 1.44 3.95 1.44 1.636 0 3.172-.63 4.323-1.78l8.29-8.29A6.089 6.089 0 0 0 40 8.28c0-1.64-.635-3.17-1.79-4.328zM21.656 25.6c0 1.363-.53 2.642-1.49 3.603l-8.29 8.29a5.06 5.06 0 0 1-3.602 1.486 5.061 5.061 0 0 1-3.604-1.49l-2.164-2.16a5.064 5.064 0 0 1-1.488-3.61c0-1.37.528-2.65 1.487-3.61l8.29-8.29a5.055 5.055 0 0 1 3.602-1.49c1.19 0 2.32.4 3.225 1.14l-1.454 1.45a3.069 3.069 0 0 0-1.77-.56c-.82 0-1.588.32-2.163.89l-8.29 8.29a3.036 3.036 0 0 0-.89 2.16c0 .82.317 1.59.89 2.165l2.164 2.16c.57.574 1.34.89 2.16.89.82 0 1.58-.316 2.16-.89l8.29-8.288a3.066 3.066 0 0 0 .33-3.938l1.45-1.45c.74.91 1.15 2.036 1.15 3.23zM11.53 28.468c.384.384.897.595 1.442.595.546 0 1.058-.212 1.442-.595l3.903-3.904c.46.782.355 1.807-.314 2.477l-8.29 8.29c-.38.38-.893.59-1.44.59-.548 0-1.06-.2-1.442-.59l-2.16-2.16c-.38-.38-.59-.89-.59-1.44s.21-1.06.59-1.44L12.96 22c.38-.383.893-.593 1.44-.593.37 0 .727.097 1.036.278l-3.903 3.903a2.032 2.032 0 0 0-.594 1.442c0 .544.21 1.056.59 1.44zm2.163-.72a1.023 1.023 0 0 1-1.442 0 1.035 1.035 0 0 1 0-1.442l6.48-6.472 7.58-7.582a1.02 1.02 0 0 1 1.44 0c.4.398.4 1.044 0 1.442L13.7 27.748zM28.467 11.53a2.025 2.025 0 0 0-1.44-.594c-.547 0-1.06.21-1.443.595l-3.904 3.91a2.027 2.027 0 0 1 .318-2.47l8.29-8.29c.38-.38.893-.59 1.44-.59.548 0 1.06.21 1.442.59l2.16 2.17c.795.8.795 2.09 0 2.88l-8.29 8.29c-.38.38-.892.59-1.44.59-.37 0-.726-.09-1.034-.27l3.902-3.9c.384-.384.596-.896.596-1.442 0-.544-.212-1.056-.596-1.44zm9.024.346l-8.28 8.29a5.066 5.066 0 0 1-3.6 1.487c-1.19 0-2.32-.403-3.22-1.145l1.46-1.454c.51.364 1.13.56 1.77.56.82 0 1.59-.316 2.168-.89l8.29-8.29a3.064 3.064 0 0 0 0-4.323L33.9 3.95a3.064 3.064 0 0 0-2.165-.89c-.82 0-1.587.32-2.162.89l-8.287 8.29a3.046 3.046 0 0 0-.895 2.16c0 .65.2 1.26.57 1.78l-1.46 1.452c-1.63-2-1.52-4.964.35-6.83l8.29-8.29a5.057 5.057 0 0 1 3.6-1.486c1.37 0 2.65.528 3.61 1.488l2.16 2.164c.96.96 1.49 2.24 1.49 3.6s-.53 2.644-1.49 3.604z"></path></symbol><symbol viewBox="0 0 22 21" id="svg-multimeter-icon"><path d="M2.11.528h.812V.364c0-.106.053-.205.138-.258a.26.26 0 0 1 .276 0 .304.304 0 0 1 .138.258v.164h.66V.364a.306.306 0 0 1 .073-.21.255.255 0 0 1 .19-.088c.153 0 .276.134.276.298v.164h.662V.364a.308.308 0 0 1 .113-.312.255.255 0 0 1 .31 0c.094.07.14.193.114.312v.164h.662V.364c0-.08.03-.155.08-.21A.267.267 0 0 1 6.81.066c.07 0 .14.032.19.088a.29.29 0 0 1 .07.21v.164h.663V.364c0-.164.124-.298.276-.298.15 0 .27.134.27.298v.164h.66V.364a.269.269 0 0 1 .07-.21.242.242 0 0 1 .19-.088c.07 0 .14.032.19.088.05.055.08.13.08.21v.164h.81a2.01 2.01 0 0 1 1.494.664c.397.428.62 1.01.614 1.617v15.32a2.33 2.33 0 0 1-.69 1.68h5.073v-3.35c-.34-.13-.57-.48-.566-.87v-2.74h-.355c-.15 0-.274-.14-.274-.3 0-.17.125-.3.277-.3h.36v-1.03c.006-.156.12-.278.26-.286h.304V9.18c-.026-.117.02-.24.113-.31s.217-.07.31 0c.094.07.14.193.114.31v1.76h.303c.146 0 .263.128.263.284v1.03h.37c.15 0 .273.132.273.297 0 .17-.124.3-.277.3H17.9v2.75c.002.39-.225.738-.565.865v3.35h1.53c.76 0 1.38-.667 1.38-1.49v-1.86a.912.912 0 0 1-.566-.865v-2.75h-.375c-.15 0-.275-.133-.275-.298 0-.165.125-.298.277-.298h.373v-1.03c0-.156.116-.283.26-.283h.304V9.18c-.03-.117.02-.24.11-.31s.216-.07.31 0c.093.07.14.193.113.31v1.76h.306a.29.29 0 0 1 .262.284v1.03h.36c.153 0 .276.132.276.297 0 .17-.123.3-.276.3h-.358v2.75c.002.39-.225.74-.565.87v1.82c0 1.173-.884 2.13-1.97 2.13H9.48v.22c0 .165-.124.3-.276.3a.243.243 0 0 1-.19-.09.293.293 0 0 1-.072-.21v-.223H8.27v.22c0 .165-.123.3-.275.3-.152 0-.276-.134-.276-.298v-.226h-.65v.22a.32.32 0 0 1-.07.21.258.258 0 0 1-.19.088c-.16 0-.28-.132-.28-.296v-.224h-.66v.22c.02.12-.02.244-.12.313-.1.07-.22.07-.31 0s-.14-.196-.12-.315v-.23h-.66v.223c0 .165-.123.3-.276.3a.25.25 0 0 1-.19-.088.293.293 0 0 1-.07-.21V20.4h-.66v.223c0 .165-.127.3-.28.3-.15 0-.275-.134-.275-.298V20.4H2.1c-1.16.004-2.1-1.01-2.105-2.27V2.81C0 1.55.943.527 2.11.527zm.426 2.296c-.147.008-.262.14-.262.298v3.22c0 .158.115.29.262.298H9.87a.25.25 0 0 0 .19-.09.293.293 0 0 0 .072-.21V3.123a.302.302 0 0 0-.072-.21.255.255 0 0 0-.19-.088H2.536zm6.01 9.584c-.022-1.385-1.075-2.49-2.356-2.474-1.28.016-2.31 1.148-2.302 2.533.007 1.386 1.048 2.504 2.33 2.505a2.26 2.26 0 0 0 1.657-.758c.437-.482.68-1.132.67-1.806z"></path></symbol><symbol viewBox="0 0 16 22" id="svg-paint-icon"><path d="M13.29 2.318h1.51c.372 0 .673.3.673.672v5.06c0 .3-.198.563-.486.646L7.735 10.79v1.855h1.34c.37 0 .67.3.67.672v6.02c0 1.468-1.192 2.663-2.7 2.663a2.666 2.666 0 0 1-2.664-2.663v-6.02c0-.37.3-.672.674-.672h1.34v-2.36c0-.3.197-.563.485-.647l7.25-2.093V3.662h-.837v1.646c0 .37-.3.672-.67.672H.67c-.37 0-.672-.3-.672-.672V.672A.675.675 0 0 1 .672 0H12.62c.37 0 .67.3.67.672v1.646zm-1.343 2.318V1.344H1.344v3.292h10.603zm-3.545 14.7V13.99H5.724v5.347c0 .727.592 1.32 1.32 1.32h.04c.726 0 1.318-.593 1.318-1.32z"></path></symbol><symbol viewBox="0 0 25 24" id="svg-rasp-icon"><path d="M24.13 5.625L18.994.487a.596.596 0 0 0-.842-.02L9.894 8.725a.575.575 0 0 0-.15.54l.64 2.764-1.444 1.44c-.228.22-.22.6.018.84s.615.24.842.02l1.666-1.67a.587.587 0 0 0 .15-.54l-.127-.548 4.5.106a.56.56 0 0 0 .58-.58l-.04-1.837 1.83.043a.562.562 0 0 0 .58-.58l-.043-1.84 1.836.044c.33.01.59-.25.584-.58a.63.63 0 0 0-.61-.61l-1.83-.04-.043-1.837a.63.63 0 0 0-.61-.606.559.559 0 0 0-.58.58l.04 1.84-1.84-.044a.559.559 0 0 0-.58.58l.044 1.837-1.836-.04a.564.564 0 0 0-.58.584.621.621 0 0 0 .607.606l1.84.042.03 1.24-4.16-.1-.235-1.025L18.6 1.74l4.278 4.276-7.625 7.625-2.765-.63a.584.584 0 0 0-.54.15l-2.526 2.52-1.852-1.85c-.24-.235-.615-.244-.84-.02l-1.38 1.38-3.87 3.866c-1.066 1.068-1.025 2.844.093 3.96l.032.034c1.117 1.116 2.894 1.16 3.96.092l3.865-3.87 1.38-1.377a.593.593 0 0 0-.02-.842l-.508-.507 2.306-2.306 2.766.638a.57.57 0 0 0 .538-.15l8.26-8.257c.226-.225.217-.602-.02-.84zM16.476 6.84l1.242.03.03 1.242-1.243-.03-.03-1.24zM8.57 18.41l-3.865 3.864c-.613.613-1.634.59-2.276-.053l-.04-.03c-.647-.64-.67-1.66-.058-2.27l3.454-3.45 1.4 1.395c.24.238.616.247.843.02a.594.594 0 0 0-.02-.842l-1.394-1.4.555-.555 2.363 2.36-.968.97z"></path></symbol><symbol viewBox="0 0 22 22" id="svg-ruler-and-pencil-icon"><g fill-rule="evenodd"><path d="M21.435 18.104a.5.5 0 0 0 .5-.5V.534a.5.5 0 0 0-.883-.32L3.71 21.148a.498.498 0 0 0-.068.53c.082.177.258.29.45.29h17.343a.5.5 0 0 0 0-1H5.155l15.782-19.05v15.687a.5.5 0 0 0 .498.5z"></path><path d="M17.606 9.616l-6.353 7.67a.497.497 0 1 0 .382.818h6.354c.27 0 .49-.224.49-.5V9.936c0-.21-.13-.4-.33-.47a.49.49 0 0 0-.55.15zm-.115 7.488H12.7l4.79-5.784v5.784zm-13.31-.802L5.37 14.8l6.415-8.082.003-.003.01-.012.03-.048.008-.013.03-.065v-.003l1.9-5.365a.498.498 0 0 0-.16-.56.476.476 0 0 0-.576-.029L8.24 3.68l-.01.002-.02.016c-.01.003-.014.01-.02.014l-.02.015-.02.017c-.002.005-.01.01-.01.015l-.02.02h-.005l-4.91 6.184a.5.5 0 0 0 .78.623l4.6-5.797 2.107 1.683-5.793 7.3-2.5-1.99a.511.511 0 0 0-.71.08L.502 13.37a2.338 2.338 0 0 0 .37 3.277l.03.023c.41.328.926.508 1.45.508a2.3 2.3 0 0 0 1.82-.88zM9.36 4.146l.727-.464.5.4a.496.496 0 0 0 .7-.082.501.501 0 0 0-.08-.702l-.23-.184 1.358-.87-1.18 3.335L9.36 4.14zM2.353 16.182c-.303 0-.588-.1-.826-.29l-.03-.023a1.35 1.35 0 0 1-.49-.9c-.04-.36.058-.7.28-.98l.88-1.11 2.108 1.68-.88 1.11c-.255.32-.634.5-1.042.5z"></path><path d="M5.182 11.756a.495.495 0 0 0 .39-.188l3.26-4.107a.497.497 0 1 0-.78-.62l-3.26 4.11c-.17.22-.135.53.08.71.092.075.202.11.31.11z"></path></g></symbol><symbol viewBox="0 0 19 24" id="svg-saw-icon"><path d="M17.776.105a1.277 1.277 0 0 0-1.43.29l-8.838 9.11-.015.016-.017.02-6.596 6.8a3.087 3.087 0 0 0 0 4.26l2.46 2.538c.562.58 1.3.868 2.04.868.71 0 1.423-.265 1.982-.797a.547.547 0 0 0 .128-.097c.55-.57.855-1.324.855-2.127v-4.14l2.216-2.29c.01-.003.01-.007.01-.01l.03-.024a.072.072 0 0 0 .014-.02l.016-.022.013-.02.01-.023.01-.02.01-.022.01-.022.007-.023.005-.024.006-.027v-.026l.007-.023c0-.01 0-.02.002-.03v-.01l.03-1.485 1.44-.03a.505.505 0 0 0 .49-.503l.03-1.49 1.44-.03a.507.507 0 0 0 .49-.504l.03-1.487 1.442-.03a.509.509 0 0 0 .49-.506l.03-1.49 1.445-.03a.512.512 0 0 0 .49-.513l.027-4.74A1.35 1.35 0 0 0 17.78.11zm-.22 5.488l-1.437.03a.505.505 0 0 0-.49.506l-.03 1.48-1.45.03a.505.505 0 0 0-.49.502l-.027 1.49-1.444.03a.508.508 0 0 0-.49.504l-.027 1.488-1.445.03a.507.507 0 0 0-.49.505L9.7 13.963l-1.35 1.395v-2.22a.508.508 0 0 0-.5-.513c-.276 0-.5.23-.5.515v3.36a.551.551 0 0 0-.016.13v4.353c0 .49-.17.954-.49 1.32-.04.02-.08.05-.11.085-.75.77-1.96.78-2.7.016L1.58 19.87a2.031 2.031 0 0 1 0-2.8l6.6-6.803.014-.017.016-.016 8.84-9.105a.285.285 0 0 1 .34-.07c.057.022.19.1.19.294l-.026 4.24z"></path></symbol><symbol viewBox="0 0 22 22" id="svg-scissors-icon"><g fill-rule="evenodd"><path d="M16.733 11.34c-.633 0-1.24.114-1.8.324l-.705-.715 4.928-5a4.093 4.093 0 0 0 0-5.73l-.024-.03a.552.552 0 0 0-.802 0l-5.817 5.9a.576.576 0 0 0 0 .81c.22.22.58.22.802 0l5.38-5.46a2.933 2.933 0 0 1-.34 3.684l-4.93 4.996L3.623.197a.563.563 0 0 0-.802 0L2.8.22a4.099 4.099 0 0 0 0 5.732l4.93 4.997-.706.71a5.12 5.12 0 0 0-1.8-.33c-2.88 0-5.22 2.37-5.22 5.29s2.34 5.29 5.22 5.29c2.878 0 5.22-2.375 5.22-5.294 0-.555-.085-1.09-.243-1.594l.78-.79.78.79c-.15.503-.24 1.04-.24 1.594 0 2.92 2.34 5.296 5.22 5.296s5.22-2.375 5.22-5.294c0-2.918-2.34-5.29-5.22-5.29zM5.22 20.773c-2.253 0-4.086-1.858-4.086-4.143 0-2.283 1.833-4.14 4.085-4.14s4.08 1.857 4.08 4.14c0 2.286-1.84 4.144-4.09 4.144zm4.478-6.858a5.305 5.305 0 0 0-1.614-1.705l.443-.448 1.647 1.67-.476.484zm-.77-3.373L3.598 5.14a2.94 2.94 0 0 1-.343-3.688l9.768 9.904.844.855a5.347 5.347 0 0 0-1.613 1.71l-3.327-3.37zm7.805 10.23c-2.253 0-4.086-1.857-4.086-4.142 0-2.283 1.833-4.14 4.086-4.14s4.085 1.857 4.085 4.14c0 2.286-1.832 4.144-4.085 4.144z"></path><path d="M5.22 14.38c-1.226 0-2.222 1.01-2.222 2.25 0 1.243.996 2.254 2.22 2.254 1.226 0 2.223-1.01 2.223-2.253 0-1.24-.99-2.25-2.22-2.25zm0 3.354c-.6 0-1.088-.495-1.088-1.103 0-.6.488-1.1 1.087-1.1.6 0 1.08.5 1.08 1.1 0 .61-.49 1.11-1.09 1.11zm11.513-3.354c-1.225 0-2.222 1.01-2.222 2.25a.569.569 0 1 0 1.14.001c0-.6.49-1.1 1.09-1.1s1.09.5 1.09 1.1c0 .61-.482 1.11-1.082 1.11a.574.574 0 0 0-.567.58c0 .32.254.578.567.578 1.223 0 2.22-1.01 2.22-2.253 0-1.24-.997-2.25-2.22-2.25z"></path></g></symbol><symbol viewBox="0 0 9 26" id="svg-screwdriver-icon"><g fill-rule="evenodd"><path d="M8.93 12.553v-.03a.542.542 0 0 0-.546-.538H4.218V6.14h.872v4.52c0 .297.244.538.544.538.3 0 .545-.24.545-.54V5.7c.02-.03.033-.063.05-.097l.572-1.37a.532.532 0 0 0 .02-.354L5.968.89A.55.55 0 0 0 5.442.5H3.865a.545.545 0 0 0-.524.39l-.86 2.983a.594.594 0 0 0 .02.354L3.08 5.6a.482.482 0 0 0 .054.097v6.288H.58c-.3 0-.545.24-.545.54v.028c0 1.06.498 2.036 1.33 2.665a3.413 3.413 0 0 0-.436 1.68v5.08c0 .808.28 1.596.8 2.22.19.228.534.26.766.07a.534.534 0 0 0 .073-.758 2.39 2.39 0 0 1-.556-1.533v-5.08c0-.55.184-1.07.532-1.5.1-.127.14-.29.107-.45a.54.54 0 0 0-.283-.366 2.27 2.27 0 0 1-1.19-1.512h6.6a2.29 2.29 0 0 1-1.193 1.518.544.544 0 0 0-.285.368.543.543 0 0 0 .108.45c.35.43.533.95.533 1.5v5.08c0 1.328-1.09 2.41-2.433 2.41h-.06c-.3 0-.544.24-.544.54a.54.54 0 0 0 .544.537h.06c1.944 0 3.524-1.564 3.524-3.487V16.9c0-.597-.15-1.168-.435-1.68a3.34 3.34 0 0 0 1.33-2.665zM4.274 1.578h.757l.7 2.412-.36.867H3.94l-.36-.866.695-2.41z"></path><path d="M3.33 16.35c-.3 0-.545.24-.545.538v5.335a.542.542 0 0 0 1.084 0v-5.335a.544.544 0 0 0-.546-.54zm2.848 5.873v-5.335a.542.542 0 0 0-.544-.54c-.3 0-.544.242-.544.54v5.335c0 .298.243.54.544.54.3 0 .544-.242.544-.54z"></path></g></symbol><symbol viewBox="0 0 48 36" id="svg-stone-icon"><g fill-rule="evenodd"><path d="M47.226 23.062h-6.968V12.54a.778.778 0 0 0-.774-.783h-6.968V1.234a.778.778 0 0 0-.774-.782H16.258a.778.778 0 0 0-.774.782v10.522H8.516a.778.778 0 0 0-.774.782V23.06H.774a.778.778 0 0 0-.774.783v11.304c0 .432.346.783.774.783h46.452c.428 0 .774-.35.774-.783V23.845a.777.777 0 0 0-.774-.783zm-8.516 0H24.774v-9.74H38.71v9.74zM17.032 2.017h13.936v9.74H17.032v-9.74zM9.29 13.322h13.936v9.74H9.29v-9.74zM1.548 24.627h13.936v9.738H1.548v-9.738zm15.484 0h13.936v9.738H17.032v-9.738zm29.42 9.738H32.516v-9.738h13.936v9.738z"></path><path d="M28.84 9.843c.427 0 .773-.35.773-.783V3.387a.778.778 0 0 0-.774-.783c-.43 0-.78.35-.78.783V9.06c0 .434.346.783.774.783zm7.74 11.152c.43 0 .775-.35.775-.782V14.54a.779.779 0 0 0-.774-.784c-.422 0-.77.35-.77.783v5.67c0 .43.348.78.776.78zm7.936 10.565c.428 0 .774-.35.774-.782V25.57a.778.778 0 0 0-.774-.782.778.778 0 0 0-.774.782v5.208c0 .433.346.782.774.782z"></path></g></symbol><symbol viewBox="0 0 48 26" id="svg-wood-icon"><g fill-rule="evenodd"><path d="M10.72 7.565c-4.112 0-7.457 3.232-7.457 7.204 0 3.97 3.345 7.202 7.457 7.202a7.57 7.57 0 0 0 3.3-.745l-.633-1.236c-.834.4-1.73.603-2.667.603-3.326 0-6.03-2.614-6.03-5.827 0-3.214 2.704-5.827 6.03-5.827 3.325 0 6.03 2.612 6.03 5.825a5.69 5.69 0 0 1-1.68 4.03l1.03.954c1.34-1.35 2.076-3.12 2.076-4.986 0-3.973-3.345-7.205-7.456-7.205z"></path><path d="M6.526 14.77c0 2.233 1.88 4.05 4.194 4.05 2.312 0 4.193-1.817 4.193-4.05 0-2.235-1.88-4.053-4.193-4.053-2.313 0-4.194 1.818-4.194 4.052zm6.96 0c0 1.473-1.24 2.673-2.766 2.673-1.527 0-2.768-1.2-2.768-2.674 0-1.477 1.242-2.677 2.768-2.677 1.526 0 2.767 1.2 2.767 2.674zm20.234-3.344h10.062v1.378h-10.06zm1.324 5.86c-1.582 0-2.87 1.245-2.87 2.774H33.6c0-.77.648-1.395 1.444-1.395.796 0 1.444.626 1.444 1.395h1.426c0-1.53-1.288-2.773-2.87-2.773z"></path><path d="M35.044 14.554a5.789 5.789 0 0 0-4.106 1.69h-8.176v1.378h8.82l.214-.242a4.332 4.332 0 0 1 3.248-1.448c1.25 0 2.434.528 3.248 1.448l.213.242h5.277v-1.378H39.15a5.787 5.787 0 0 0-4.106-1.69z"></path><path d="M37.28 4.412h-9.59L24.757.256h-4.254l.01 4.156H10.72C4.81 4.412 0 9.058 0 14.77c0 5.71 4.81 10.356 10.72 10.356h26.56C43.19 25.126 48 20.48 48 14.77c0-5.713-4.81-10.36-10.72-10.36zM1.426 14.77c0-4.952 4.17-8.98 9.294-8.98 5.124 0 9.293 4.028 9.293 8.98 0 4.95-4.17 8.978-9.293 8.978-5.125 0-9.294-4.028-9.294-8.98zm35.854 8.978H16.057a10.738 10.738 0 0 0 2.485-1.905h10.755v-1.378h-9.63a10.04 10.04 0 0 0 1.575-7.664h10.3v-1.377h-10.68a10.068 10.068 0 0 0-.952-1.978h19.03V8.07H18.89c-.8-.907-1.757-1.68-2.832-2.28h5.884l-.01-4.156h2.072l2.932 4.156H37.28c5.125 0 9.294 4.028 9.294 8.98 0 4.95-4.17 8.978-9.294 8.978z"></path></g></symbol><symbol viewBox="0 0 15 22" id="svg-wrench-screwdriver-icon"><path fill-rule="evenodd" d="M5.892 21.217a1.59 1.59 0 0 0 .486-1.175v-1.628c.01-.62-.322-1.2-.866-1.507l-.728-.422-.137-11.21.73-.408a1.64 1.64 0 0 0 .818-1.507V1.838A1.686 1.686 0 0 0 5.33.33L4.844.045a.33.33 0 0 0-.333 0c-.1.06-.16.168-.16.287v1.93a.77.77 0 0 1-.24.587.8.8 0 0 1-.57.22h-.87a.888.888 0 0 1-.59-.26.827.827 0 0 1-.24-.56V.36c0-.118-.06-.23-.17-.285a.363.363 0 0 0-.333 0l-.5.285c-.54.31-.86.89-.834 1.508V3.48a1.72 1.72 0 0 0 .867 1.507l.73.437.12 11.212-.73.407c-.54.305-.86.89-.82 1.507v1.612c-.01.62.32 1.195.86 1.507l.48.28c.1.06.23.06.33 0s.163-.17.164-.29v-2.12a.767.767 0 0 1 .244-.59.83.83 0 0 1 .577-.24h.87c.22 0 .433.08.592.24.15.16.236.37.242.58v1.92a.336.336 0 0 0 .5.287l.485-.27c.132-.066.255-.15.363-.255zm7.818.317c.23-.228.355-.538.35-.86l-.092-7.745h.365c.184 0 .334-.15.334-.34a.367.367 0 0 0-.35-.35H13.18v-1.23c0-.09-.032-.18-.092-.24a.377.377 0 0 0-.243-.11h-.364l-.1-9.04a.248.248 0 0 0 0-.17L12 .49a.556.556 0 0 0-.47-.32.489.489 0 0 0-.457.32l-.365.95a.315.315 0 0 0 0 .167l.107 9.04h-.47a.333.333 0 0 0-.332.33v1.22h-1.13a.315.315 0 0 0-.246.08.284.284 0 0 0-.087.24c0 .09.03.172.092.235.063.06.148.096.237.096h.35l.09 7.743c.01.686.58 1.234 1.27 1.234h2.26c.31 0 .61-.11.85-.32z"></path></symbol></svg>